<svg width="13" height="14" viewBox="0 0 13 14" fill="none" xmlns="http://www.w3.org/2000/svg">
<path fill-rule="evenodd" clip-rule="evenodd" d="M6.23925 0C2.79341 0 0 2.79341 0 6.23925C0 8.11379 0.976498 9.74397 2.06306 10.9861C3.15748 12.2372 4.43486 13.1769 5.19514 13.6827C5.83092 14.1058 6.64757 14.1058 7.28335 13.6827C8.04364 13.1769 9.32102 12.2372 10.4155 10.9861C11.502 9.74397 12.4785 8.11379 12.4785 6.23925C12.4785 2.79341 9.68511 0 6.23925 0ZM4.85275 6.23925C4.85275 5.4735 5.47348 4.85275 6.23925 4.85275C7.00501 4.85275 7.62575 5.4735 7.62575 6.23925C7.62575 7.00501 7.00501 7.62574 6.23925 7.62574C5.47348 7.62574 4.85275 7.00501 4.85275 6.23925ZM6.23925 3.46625C4.70776 3.46625 3.46625 4.70776 3.46625 6.23925C3.46625 7.7707 4.70776 9.01224 6.23925 9.01224C7.7707 9.01224 9.01224 7.7707 9.01224 6.23925C9.01224 4.70776 7.7707 3.46625 6.23925 3.46625Z" fill="#EA5448"/>
</svg>
