<svg width="18" height="15" viewBox="0 0 18 15" fill="none" xmlns="http://www.w3.org/2000/svg">
<path d="M10.8 0H7.2C3.80588 0 2.10884 0 1.05441 1.05441C0.295227 1.8136 0.0826649 2.90594 0.0231479 4.725H17.9769C17.9174 2.90594 17.7048 1.8136 16.9456 1.05441C15.8912 0 14.1941 0 10.8 0Z" fill="#C7BBBB"/>
<path d="M7.2 14.4H10.8C14.1941 14.4 15.8912 14.4 16.9456 13.3456C18 12.2912 18 10.5941 18 7.2C18 6.80229 18 6.4278 17.9983 6.075H0.00170095C-5.02914e-08 6.4278 0 6.80229 0 7.2C0 10.5941 1.19209e-07 12.2912 1.05441 13.3456C2.10884 14.4 3.80588 14.4 7.2 14.4Z" fill="#C7BBBB"/>
<path fill-rule="evenodd" clip-rule="evenodd" d="M2.925 10.8C2.925 10.4272 3.22721 10.125 3.6 10.125H7.2C7.57278 10.125 7.875 10.4272 7.875 10.8C7.875 11.1728 7.57278 11.475 7.2 11.475H3.6C3.22721 11.475 2.925 11.1728 2.925 10.8Z" fill="white"/>
<path fill-rule="evenodd" clip-rule="evenodd" d="M8.775 10.8C8.775 10.4272 9.07722 10.125 9.45 10.125H10.8C11.1728 10.125 11.475 10.4272 11.475 10.8C11.475 11.1728 11.1728 11.475 10.8 11.475H9.45C9.07722 11.475 8.775 11.1728 8.775 10.8Z" fill="white"/>
</svg>
