<svg width="38" height="36" viewBox="0 0 38 36" fill="none" xmlns="http://www.w3.org/2000/svg">
<path d="M37.2776 7.02959H7.56616L6.06458 0H0V1.83019H4.58379L5.69438 7.02959L9.86638 26.5752L31.9118 26.5918V24.7616L11.3472 24.7491L10.4071 20.3442H31.9493L37.2776 7.02959ZM34.5739 8.85977L32.9309 12.9611H8.83482L7.95716 8.85977H34.5739ZM10.0203 18.514L8.97624 13.6266H32.6647L30.7097 18.514H10.0203Z" fill="#39393A"/>
<path d="M12.9656 29.9984C14.1593 29.9984 15.1285 30.9676 15.1285 32.1614C15.1285 33.3551 14.1593 34.3243 12.9656 34.3243C11.7718 34.3243 10.8026 33.3551 10.8026 32.1614C10.8026 30.9676 11.7718 29.9984 12.9656 29.9984ZM12.9656 29.1665C11.3142 29.1665 9.9707 30.5059 9.9707 32.1614C9.9707 33.8168 11.3101 35.1562 12.9656 35.1562C14.621 35.1562 15.9604 33.8168 15.9604 32.1614C15.9604 30.5059 14.6169 29.1665 12.9656 29.1665ZM27.7901 29.9984C28.9839 29.9984 29.953 30.9676 29.953 32.1614C29.953 33.3551 28.9839 34.3243 27.7901 34.3243C26.5963 34.3243 25.6271 33.3551 25.6271 32.1614C25.6271 30.9676 26.5963 29.9984 27.7901 29.9984ZM27.7901 29.1665C26.1388 29.1665 24.7952 30.5059 24.7952 32.1614C24.7952 33.8168 26.1346 35.1562 27.7901 35.1562C29.4414 35.1562 30.7849 33.8168 30.7849 32.1614C30.7849 30.5059 29.4414 29.1665 27.7901 29.1665ZM15.9562 8.85974H16.6218V18.514H15.9562V8.85974ZM24.4625 8.85974H25.128V18.514H24.4625V8.85974Z" fill="#E73B37"/>
</svg>
