<svg width="28" height="27" viewBox="0 0 28 27" fill="none" xmlns="http://www.w3.org/2000/svg">
<path d="M3.3316 11.1588C3.34225 11.2552 3.35308 11.3527 3.36402 11.4511L3.53364 12.9777C3.65269 14.0497 3.75594 14.9795 3.93609 15.7214C4.12988 16.5195 4.44936 17.2715 5.11557 17.8678C5.78179 18.4641 6.56439 18.6986 7.37907 18.8029C8.13637 18.9001 9.0718 18.9 10.1505 18.9H17.3776C18.1171 18.9 18.7699 18.9 19.3149 18.8446C19.9055 18.7847 20.4792 18.6519 21.031 18.3196C21.5827 17.9874 21.9687 17.5424 22.2981 17.0486C22.602 16.5928 22.9073 16.016 23.2532 15.3626L26.614 9.01441C27.8065 6.76197 26.1737 4.04997 23.625 4.04997H9.98843C8.66165 4.04991 7.52659 4.04984 6.62813 4.17537C6.17341 4.23892 5.72783 4.34064 5.3099 4.51406L5.1157 2.76631C4.94072 1.19144 3.60956 0 2.025 0H1.35C0.604422 0 0 0.604409 0 1.35C0 2.09558 0.604422 2.7 1.35 2.7H2.025C2.23378 2.7 2.40916 2.85698 2.43221 3.06447L3.3316 11.1588Z" fill="#323232"/>
<path fill-rule="evenodd" clip-rule="evenodd" d="M16.2 23.625C16.2 21.7611 17.7111 20.25 19.575 20.25C21.4389 20.25 22.95 21.7611 22.95 23.625C22.95 25.4889 21.4389 27 19.575 27C17.7111 27 16.2 25.4889 16.2 23.625Z" fill="#323232"/>
<path fill-rule="evenodd" clip-rule="evenodd" d="M4.05 23.625C4.05 21.7611 5.56104 20.25 7.425 20.25C9.28896 20.25 10.8 21.7611 10.8 23.625C10.8 25.4889 9.28896 27 7.425 27C5.56104 27 4.05 25.4889 4.05 23.625Z" fill="#323232"/>
</svg>
