<svg width="16" height="16" viewBox="0 0 16 16" fill="none" xmlns="http://www.w3.org/2000/svg">
<path fill-rule="evenodd" clip-rule="evenodd" d="M2.1535 3.80711e-05C1.87233 -0.000230234 1.62996 -0.000461611 1.41524 0.05109C0.740204 0.213144 0.213144 0.740204 0.05109 1.41524C-0.000461611 1.62996 -0.000230234 1.87233 3.80711e-05 2.1535V5.23121C-0.000230234 5.51237 -0.000461611 5.75476 0.05109 5.96947C0.213144 6.6445 0.740204 7.17156 1.41524 7.33363C1.62996 7.38517 1.87233 7.38494 2.1535 7.38467H5.23121C5.51237 7.38494 5.75476 7.38517 5.96947 7.33363C6.6445 7.17156 7.17156 6.6445 7.33363 5.96947C7.38517 5.75476 7.38494 5.51237 7.38467 5.23121V2.1535C7.38494 1.87233 7.38517 1.62996 7.33363 1.41524C7.17156 0.740204 6.6445 0.213144 5.96947 0.05109C5.75476 -0.000461611 5.51237 -0.000230234 5.23121 3.80711e-05H2.1535ZM1.70256 1.24784C1.75553 1.23512 1.83664 1.23083 2.21544 1.23083H5.16926C5.54808 1.23083 5.62919 1.23512 5.68215 1.24784C5.90717 1.30186 6.08284 1.47754 6.13687 1.70256C6.14959 1.75553 6.15387 1.83664 6.15387 2.21544V5.16926C6.15387 5.54808 6.14959 5.62919 6.13687 5.68215C6.08284 5.90717 5.90717 6.08284 5.68215 6.13687C5.62919 6.14959 5.54808 6.15387 5.16926 6.15387H2.21544C1.83664 6.15387 1.75553 6.14959 1.70256 6.13687C1.47754 6.08284 1.30186 5.90717 1.24784 5.68215C1.23512 5.62919 1.23083 5.54808 1.23083 5.16926V2.21544C1.23083 1.83664 1.23512 1.75553 1.24784 1.70256C1.30186 1.47754 1.47754 1.30186 1.70256 1.24784ZM10.7688 3.80711e-05C10.4876 -0.000230234 10.2453 -0.000461611 10.0306 0.05109C9.35552 0.213144 8.82846 0.740204 8.6664 1.41524C8.61485 1.62996 8.61508 1.87233 8.61535 2.1535V5.23121C8.61508 5.51237 8.61485 5.75476 8.6664 5.96947C8.82846 6.6445 9.35552 7.17156 10.0306 7.33363C10.2453 7.38517 10.4876 7.38494 10.7688 7.38467H13.8465C14.1277 7.38494 14.37 7.38517 14.5848 7.33363C15.2598 7.17156 15.7869 6.6445 15.949 5.96947C16.0004 5.75476 16.0003 5.51237 15.9999 5.23121V2.1535C16.0003 1.87233 16.0004 1.62996 15.949 1.41524C15.7869 0.740204 15.2598 0.213144 14.5848 0.05109C14.37 -0.000461611 14.1277 -0.000230234 13.8465 3.80711e-05H10.7688ZM10.3179 1.24784C10.3708 1.23512 10.452 1.23083 10.8308 1.23083H13.7846C14.1634 1.23083 14.2445 1.23512 14.2974 1.24784C14.5224 1.30186 14.6982 1.47754 14.7522 1.70256C14.7649 1.75553 14.7692 1.83664 14.7692 2.21544V5.16926C14.7692 5.54808 14.7649 5.62919 14.7522 5.68215C14.6982 5.90717 14.5224 6.08284 14.2974 6.13687C14.2445 6.14959 14.1634 6.15387 13.7846 6.15387H10.8308C10.452 6.15387 10.3708 6.14959 10.3179 6.13687C10.0929 6.08284 9.91717 5.90717 9.86316 5.68215C9.85043 5.62919 9.84615 5.54808 9.84615 5.16926V2.21544C9.84615 1.83664 9.85043 1.75553 9.86316 1.70256C9.91717 1.47754 10.0929 1.30186 10.3179 1.24784ZM2.1535 8.61535H5.23121C5.51237 8.61508 5.75476 8.61485 5.96947 8.6664C6.6445 8.82846 7.17156 9.35552 7.33363 10.0306C7.38517 10.2453 7.38494 10.4876 7.38467 10.7688V13.8465C7.38494 14.1277 7.38517 14.37 7.33363 14.5848C7.17156 15.2598 6.6445 15.7869 5.96947 15.949C5.75476 16.0004 5.51237 16.0003 5.23121 15.9999H2.1535C1.87233 16.0003 1.62996 16.0004 1.41524 15.949C0.740204 15.7869 0.213144 15.2598 0.05109 14.5848C-0.000461611 14.37 -0.000230234 14.1277 3.80711e-05 13.8465V10.7688C-0.000230234 10.4876 -0.000461611 10.2453 0.05109 10.0306C0.213144 9.35552 0.740204 8.82846 1.41524 8.6664C1.62996 8.61485 1.87233 8.61508 2.1535 8.61535ZM2.21544 9.84615C1.83664 9.84615 1.75553 9.85043 1.70256 9.86316C1.47754 9.91717 1.30186 10.0929 1.24784 10.3179C1.23512 10.3708 1.23083 10.452 1.23083 10.8308V13.7846C1.23083 14.1634 1.23512 14.2445 1.24784 14.2974C1.30186 14.5224 1.47754 14.6982 1.70256 14.7522C1.75553 14.7649 1.83664 14.7692 2.21544 14.7692H5.16926C5.54808 14.7692 5.62919 14.7649 5.68215 14.7522C5.90717 14.6982 6.08284 14.5224 6.13687 14.2974C6.14959 14.2445 6.15387 14.1634 6.15387 13.7846V10.8308C6.15387 10.452 6.14959 10.3708 6.13687 10.3179C6.08284 10.0929 5.90717 9.91717 5.68215 9.86316C5.62919 9.85043 5.54808 9.84615 5.16926 9.84615H2.21544ZM10.7688 8.61535C10.4876 8.61508 10.2453 8.61485 10.0306 8.6664C9.35552 8.82846 8.82846 9.35552 8.6664 10.0306C8.61485 10.2453 8.61508 10.4876 8.61535 10.7688V13.8465C8.61508 14.1277 8.61485 14.37 8.6664 14.5848C8.82846 15.2598 9.35552 15.7869 10.0306 15.949C10.2453 16.0004 10.4876 16.0003 10.7688 15.9999H13.8465C14.1277 16.0003 14.37 16.0004 14.5848 15.949C15.2598 15.7869 15.7869 15.2598 15.949 14.5848C16.0004 14.37 16.0003 14.1277 15.9999 13.8465V10.7688C16.0003 10.4876 16.0004 10.2453 15.949 10.0306C15.7869 9.35552 15.2598 8.82846 14.5848 8.6664C14.37 8.61485 14.1277 8.61508 13.8465 8.61535H10.7688ZM10.3179 9.86316C10.3708 9.85043 10.452 9.84615 10.8308 9.84615H13.7846C14.1634 9.84615 14.2445 9.85043 14.2974 9.86316C14.5224 9.91717 14.6982 10.0929 14.7522 10.3179C14.7649 10.3708 14.7692 10.452 14.7692 10.8308V13.7846C14.7692 14.1634 14.7649 14.2445 14.7522 14.2974C14.6982 14.5224 14.5224 14.6982 14.2974 14.7522C14.2445 14.7649 14.1634 14.7692 13.7846 14.7692H10.8308C10.452 14.7692 10.3708 14.7649 10.3179 14.7522C10.0929 14.6982 9.91717 14.5224 9.86316 14.2974C9.85043 14.2445 9.84615 14.1634 9.84615 13.7846V10.8308C9.84615 10.452 9.85043 10.3708 9.86316 10.3179C9.91717 10.0929 10.0929 9.91717 10.3179 9.86316Z" fill="#EA5448"/>
</svg>
