<svg width="15" height="12" viewBox="0 0 15 12" fill="none" xmlns="http://www.w3.org/2000/svg">
<path fill-rule="evenodd" clip-rule="evenodd" d="M2.97602 3.24501e-07H12.024C12.353 -7.1755e-06 12.6368 -1.47452e-05 12.8718 0.0160128C13.1191 0.0328953 13.3666 0.0700205 13.6111 0.17127C14.1623 0.39963 14.6004 0.837653 14.8287 1.38896C14.93 1.63341 14.9671 1.88084 14.984 2.12822C15 2.36316 15 2.64702 15 2.97601V9.024C15 9.35295 15 9.63682 14.984 9.8718C14.9671 10.1191 14.93 10.3666 14.8287 10.6111C14.6004 11.1623 14.1623 11.6004 13.6111 11.8287C13.3666 11.93 13.1191 11.9671 12.8718 11.984C12.6368 12 12.353 12 12.024 12H2.97601C2.64702 12 2.36316 12 2.12822 11.984C1.88084 11.9671 1.63341 11.93 1.38896 11.8287C0.837653 11.6004 0.39963 11.1623 0.17127 10.6111C0.0700203 10.3666 0.0328953 10.1191 0.0160128 9.8718C-1.47452e-05 9.63682 -7.1755e-06 9.35295 3.24501e-07 9.024V2.97602C-7.1755e-06 2.64703 -1.47452e-05 2.36316 0.0160128 2.12822C0.0328953 1.88084 0.0700203 1.63341 0.17127 1.38896C0.39963 0.837653 0.837653 0.39963 1.38896 0.17127C1.63341 0.0700205 1.88084 0.0328953 2.12822 0.0160128C2.36316 -1.47452e-05 2.64703 -7.1755e-06 2.97602 3.24501e-07ZM1.73809 1.70833C2.01086 1.39661 2.48468 1.36502 2.79641 1.63778L7.00613 5.32125C7.28888 5.56868 7.71112 5.56868 7.99387 5.32125L12.2036 1.63778C12.5153 1.36502 12.9892 1.39661 13.2619 1.70833C13.5347 2.02006 13.5031 2.49388 13.1914 2.76664L8.98162 6.45015C8.1333 7.19242 6.8667 7.19242 6.01837 6.45015L1.80865 2.76664C1.49692 2.49388 1.46533 2.02006 1.73809 1.70833Z" fill="#EA5448"/>
</svg>
