<svg width="37" height="36" viewBox="0 0 37 36" fill="none" xmlns="http://www.w3.org/2000/svg">
<path d="M17.6973 22.4139C17.6973 22.5261 17.7419 22.6338 17.8213 22.7132C17.9007 22.7926 18.0084 22.8372 18.1206 22.8372C18.2329 22.8372 18.3406 22.7926 18.42 22.7132C18.4994 22.6338 18.544 22.5261 18.544 22.4139C18.544 22.3016 18.4994 22.1939 18.42 22.1145C18.3406 22.0351 18.2329 21.9905 18.1206 21.9905C18.0084 21.9905 17.9007 22.0351 17.8213 22.1145C17.7419 22.1939 17.6973 22.3016 17.6973 22.4139Z" fill="#E73B37"/>
<path d="M17.6807 24.1368C17.6807 24.249 17.7253 24.3567 17.8047 24.4361C17.8841 24.5155 17.9918 24.5601 18.104 24.5601C18.2163 24.5601 18.324 24.5155 18.4034 24.4361C18.4828 24.3567 18.5274 24.249 18.5274 24.1368C18.5274 24.0245 18.4828 23.9168 18.4034 23.8374C18.324 23.758 18.2163 23.7134 18.104 23.7134C17.9918 23.7134 17.8841 23.758 17.8047 23.8374C17.7253 23.9168 17.6807 24.0245 17.6807 24.1368Z" fill="#E73B37"/>
<path d="M17.7139 25.8643C17.7139 25.9766 17.7585 26.0843 17.8379 26.1637C17.9173 26.2431 18.025 26.2877 18.1372 26.2877C18.2495 26.2877 18.3572 26.2431 18.4366 26.1637C18.516 26.0843 18.5606 25.9766 18.5606 25.8643C18.5606 25.752 18.516 25.6443 18.4366 25.5649C18.3572 25.4855 18.2495 25.4409 18.1372 25.4409C18.025 25.4409 17.9173 25.4855 17.8379 25.5649C17.7585 25.6443 17.7139 25.752 17.7139 25.8643Z" fill="#E73B37"/>
<path d="M18.1207 1.86287C19.9031 1.86287 21.5797 2.55721 22.8413 3.81889C24.103 5.08056 24.7974 6.75714 24.7974 8.53957C24.7974 10.322 24.103 11.9986 22.8413 13.2603C21.5797 14.5219 19.9031 15.2163 18.1207 15.2163C16.3382 15.2163 14.6616 14.5219 13.4 13.2603C12.1383 11.9986 11.444 10.322 11.444 8.53957C11.444 6.75714 12.1383 5.08056 13.4 3.81889C14.6616 2.55721 16.3382 1.86287 18.1207 1.86287ZM18.1207 0C13.4042 0 9.58532 3.82312 9.58532 8.53534C9.58532 13.2518 13.4084 17.0707 18.1207 17.0707C22.8371 17.0707 26.656 13.2476 26.656 8.53534C26.656 3.82312 22.8329 0 18.1207 0ZM18.1334 18.489L0 25.1742V36H36.2413V25.1742L18.1334 18.489ZM34.3784 34.1371H1.86287V26.4951L18.1334 20.4662L34.3784 26.4951V34.1371Z" fill="#39393A"/>
<path d="M19.9578 21.1056L19.8985 21.0845V27.8543C19.8985 28.3497 19.6953 28.7985 19.3735 29.1245C19.0475 29.4505 18.5988 29.6494 18.1034 29.6494C17.1127 29.6494 16.3083 28.845 16.3083 27.8543V21.1056L16.249 21.1268L15.6309 21.347V27.8586C15.6309 29.2218 16.7401 30.3311 18.1034 30.3311C19.4667 30.3311 20.5759 29.2218 20.5759 27.8586V21.3258L19.9578 21.1056Z" fill="#E73B37"/>
</svg>
