<svg width="105" height="24" viewBox="0 0 105 24" fill="none" xmlns="http://www.w3.org/2000/svg">
<path d="M39.0154 14.8686C39.2122 14.6592 39.3733 14.4498 39.4988 14.2403C39.6239 14.0312 39.6867 13.8388 39.6867 13.664V12.2759C39.2571 12.1017 38.7915 11.9664 38.2902 11.8705C37.7887 11.7746 37.3142 11.7264 36.867 11.7264C35.936 11.7264 35.1703 11.9226 34.5709 12.3157C33.9706 12.7084 33.6709 13.2278 33.6709 13.8736C33.6709 14.2229 33.7692 14.5547 33.9664 14.8686C34.1633 15.1829 34.4498 15.436 34.8259 15.6281C35.2019 15.8202 35.6491 15.9161 36.1688 15.9161C36.7058 15.9161 37.2337 15.8156 37.7531 15.615C38.2721 15.4147 38.6931 15.1657 39.0154 14.8686ZM30.2603 14.1696C30.2603 13.2671 30.5155 12.4757 31.0258 11.7949C31.5361 11.1135 32.2475 10.5874 33.1608 10.2158C34.0738 9.84407 35.1211 9.65841 36.3028 9.65841C36.8938 9.65841 37.4933 9.70329 38.1024 9.79276C38.7107 9.88251 39.239 10.0257 39.6867 10.2224V9.47389C39.6867 8.59519 39.4222 7.91829 38.8947 7.44335C38.366 6.9687 37.5827 6.73087 36.5445 6.73087C35.7746 6.73087 35.0405 6.86551 34.3425 7.13392C33.6442 7.40248 32.9098 7.79666 32.1402 8.31577L30.9855 5.95221C31.9162 5.34392 32.8695 4.88742 33.8455 4.58256C34.821 4.27842 35.8465 4.12592 36.9206 4.12592C38.9258 4.12592 40.488 4.62029 41.6071 5.60905C42.7255 6.59752 43.2855 8.00919 43.2855 9.84478V14.2665C43.2855 14.6372 43.3525 14.9022 43.487 15.0608C43.6212 15.2198 43.8404 15.3168 44.1447 15.3518V18.2792C43.8227 18.333 43.5314 18.3776 43.2722 18.4136C43.0125 18.4493 42.7931 18.4675 42.6141 18.4675C41.8977 18.4675 41.3561 18.3062 40.9894 17.9841C40.6221 17.6619 40.3937 17.2677 40.3045 16.8022L40.224 16.077C39.615 16.8653 38.8544 17.4736 37.9412 17.9035C37.0279 18.333 36.097 18.5479 35.1482 18.5479C34.2167 18.5479 33.3799 18.3573 32.6368 17.9777C31.894 17.5976 31.3116 17.0752 30.8913 16.4121C30.4705 15.7486 30.2603 15.0012 30.2603 14.1696Z" fill="#BEBEBE"/>
<path d="M54.6452 15.4862C55.1645 15.4862 55.634 15.3907 56.0551 15.1985C56.4757 15.0065 56.8607 14.7405 57.21 14.4004C57.5591 14.0605 57.8678 13.672 58.1363 13.2357V9.9424C58.0467 9.55779 57.8811 9.19919 57.6398 8.86717C57.398 8.53459 57.1113 8.24188 56.7801 7.98776C56.4487 7.73435 56.0951 7.53783 55.7195 7.39719C55.3434 7.25798 54.9671 7.18752 54.5914 7.18752C54.0362 7.18752 53.5304 7.30186 53.0741 7.53011C52.6174 7.7585 52.2188 8.07022 51.8791 8.46541C51.5383 8.86074 51.2788 9.30853 51.1001 9.80905C50.9209 10.3097 50.8317 10.8411 50.8317 11.4027C50.8317 12.1582 50.9925 12.8434 51.3151 13.4578C51.6371 14.0725 52.0845 14.5645 52.6577 14.9332C53.2306 15.302 53.8933 15.4862 54.6452 15.4862ZM53.3022 18.5479C52.407 18.5479 51.5835 18.3573 50.8317 17.9768C50.0796 17.5962 49.4258 17.0785 48.8711 16.4232C48.3159 15.7682 47.8907 14.9977 47.5955 14.1124C47.3 13.2268 47.1521 12.2889 47.1521 11.297C47.1521 10.288 47.3175 9.34983 47.6491 8.48185C47.9799 7.61458 48.4411 6.85307 49.0323 6.1979C49.623 5.54259 50.3213 5.03363 51.127 4.67089C51.9327 4.30772 52.8006 4.12592 53.7321 4.12592C54.806 4.12592 55.7549 4.36975 56.5784 4.85669C57.402 5.34335 58.0733 5.98537 58.593 6.78175V4.34088H61.7353V24H58.1363V15.8388C57.0621 17.6448 55.4508 18.5479 53.3022 18.5479Z" fill="#BEBEBE"/>
<path d="M74.1428 14.8686C74.3394 14.6592 74.5007 14.4498 74.626 14.2403C74.7511 14.0312 74.8141 13.8388 74.8141 13.664V12.2759C74.3845 12.1017 73.9187 11.9664 73.4174 11.8705C72.9162 11.7746 72.4417 11.7264 71.9943 11.7264C71.063 11.7264 70.2976 11.9226 69.6981 12.3157C69.0978 12.7084 68.7982 13.2278 68.7982 13.8736C68.7982 14.2229 68.8964 14.5547 69.0935 14.8686C69.2906 15.1829 69.5772 15.436 69.9533 15.6281C70.3291 15.8202 70.7764 15.9161 71.2961 15.9161C71.8331 15.9161 72.3611 15.8156 72.8802 15.615C73.3996 15.4147 73.8203 15.1657 74.1428 14.8686ZM65.3875 14.1696C65.3875 13.2671 65.6427 12.4757 66.1531 11.7949C66.6633 11.1135 67.3747 10.5874 68.2878 10.2158C69.2014 9.84407 70.2485 9.65841 71.4299 9.65841C72.021 9.65841 72.6208 9.70329 73.2296 9.79276C73.838 9.88251 74.3664 10.0257 74.8141 10.2224V9.47389C74.8141 8.59519 74.5497 7.91829 74.022 7.44335C73.4936 6.9687 72.7101 6.73087 71.6717 6.73087C70.9019 6.73087 70.1679 6.86551 69.47 7.13392C68.7715 7.40248 68.0371 7.79666 67.2675 8.31577L66.1128 5.95221C67.0434 5.34392 67.997 4.88742 68.973 4.58256C69.9483 4.27842 70.9737 4.12592 72.0478 4.12592C74.0533 4.12592 75.6152 4.62029 76.7343 5.60905C77.8528 6.59752 78.4129 8.00919 78.4129 9.84478V14.2665C78.4129 14.6372 78.4798 14.9022 78.6143 15.0608C78.7484 15.2198 78.9676 15.3168 79.2721 15.3518V18.2792C78.9501 18.333 78.6586 18.3776 78.3994 18.4136C78.1395 18.4493 77.92 18.4675 77.7412 18.4675C77.0251 18.4675 76.4833 18.3062 76.1167 17.9841C75.7492 17.6619 75.5213 17.2677 75.4318 16.8022L75.3513 16.077C74.7422 16.8653 73.9817 17.4736 73.0687 17.9035C72.1551 18.333 71.2242 18.5479 70.2755 18.5479C69.3443 18.5479 68.5071 18.3573 67.7642 17.9777C67.0212 17.5976 66.439 17.0752 66.0188 16.4121C65.5977 15.7486 65.3875 15.0012 65.3875 14.1696Z" fill="#BEBEBE"/>
<path d="M104.974 18.2792H101.375V10.4978C101.375 9.40372 101.182 8.59605 100.797 8.07608C100.412 7.55569 99.8793 7.29514 99.1994 7.29514C98.5011 7.29514 97.8337 7.56455 97.1986 8.10252C96.5626 8.64092 96.1109 9.34212 95.8427 10.2064V18.2792H92.2435V10.4978C92.2435 9.38599 92.0511 8.57461 91.6661 8.06265C91.2808 7.55112 90.7484 7.29514 90.0682 7.29514C89.3701 7.29514 88.7028 7.55755 88.0675 8.08194C87.4317 8.60662 86.9799 9.29709 86.7114 10.1535V18.2792H83.1123V4.34088H86.3619V6.94111C86.899 6.0384 87.6152 5.34335 88.5107 4.85669C89.4057 4.36975 90.4351 4.12592 91.5991 4.12592C92.7626 4.12592 93.6713 4.40934 94.3251 4.97603C94.9782 5.5423 95.3949 6.24178 95.574 7.07346C96.1468 6.11786 96.8766 5.38752 97.7624 4.88313C98.649 4.37861 99.6468 4.12592 100.757 4.12592C101.634 4.12592 102.346 4.28128 102.892 4.59085C103.438 4.90086 103.863 5.31691 104.168 5.83887C104.472 6.36112 104.682 6.94998 104.799 7.60486C104.915 8.25974 104.974 8.92334 104.974 9.59624V18.2792Z" fill="#BEBEBE"/>
<path d="M26.354 20.2131C26.354 18.9829 25.3568 17.9857 24.1267 17.9857C22.8964 17.9857 21.8992 18.9829 21.8992 20.2131C21.8992 21.4432 22.8964 22.4407 24.1267 22.4407C25.3568 22.4407 26.354 21.4432 26.354 20.2131Z" fill="#BEBEBE"/>
<path d="M13.1672 7.89876C12.3161 9.60428 11.8915 11.4645 11.9639 12.8208C11.9978 13.4548 12.3491 14.4006 13.1779 14.4069C13.1858 14.4069 13.1934 14.4069 13.2011 14.4069C13.9836 14.4069 14.1834 14.0994 14.3209 13.7841C14.9248 12.3969 14.2843 9.96617 13.1672 7.89876ZM0.467009 20.362C0.442712 20.1936 -0.128418 16.1904 0.0266554 11.8492C0.254907 5.45145 1.96186 1.61948 5.1005 0.45921C7.80136 -0.539409 10.6743 0.108615 13.1303 2.22848C15.046 0.568263 17.2742 -0.180666 19.6093 0.0594486C22.0563 0.311712 25.1665 2.0484 26.0888 8.88994C26.5762 12.5059 26.2437 15.9773 26.2291 16.1234L22.7395 15.7792C23.1124 11.9451 22.7506 3.90871 19.2497 3.54797C17.9007 3.40704 16.6224 3.85011 15.4481 4.86045C17.7584 8.24078 18.697 12.5178 17.536 15.1842C16.7798 16.9208 15.2002 17.9137 13.1976 17.9137C13.1822 17.9137 13.1668 17.9137 13.1511 17.9137C10.9507 17.8968 8.63347 16.2064 8.46225 13.0086C8.3399 10.7248 9.13185 7.5483 10.849 4.89046C9.69798 3.88756 8.11522 3.08275 6.31622 3.74864C4.71732 4.33963 3.70269 7.32248 3.5329 11.932C3.38426 15.9625 3.93194 19.821 3.9378 19.8597L0.467009 20.362Z" fill="#BEBEBE"/>
</svg>
