<svg width="25" height="25" viewBox="0 0 25 25" fill="none" xmlns="http://www.w3.org/2000/svg">
<circle cx="12.5" cy="12.5" r="12" stroke="black"/>
<path d="M8.35673 11.5462C8.36107 11.5855 8.36548 11.6252 8.36993 11.6653L8.43901 12.2872C8.48749 12.724 8.52954 13.1027 8.6029 13.405C8.68181 13.7302 8.81192 14.0365 9.08322 14.2795C9.35453 14.5224 9.67322 14.6179 10.005 14.6605C10.3134 14.7001 10.6943 14.7 11.1336 14.7H14.0767C14.3779 14.7 14.6437 14.7 14.8656 14.6774C15.1061 14.653 15.3398 14.5989 15.5645 14.4636C15.7892 14.3282 15.9463 14.1469 16.0805 13.9457C16.2042 13.76 16.3286 13.525 16.4694 13.2588L17.8381 10.6725C18.3237 9.75488 17.6587 8.64999 16.6208 8.64999H11.0676C10.5273 8.64996 10.0651 8.64993 9.69918 8.70108C9.51401 8.72697 9.33255 8.76841 9.16236 8.83906L9.08327 8.12702C9.01201 7.4854 8.46993 7 7.82464 7H7.54976C7.24614 7 7 7.24624 7 7.55C7 7.85375 7.24614 8.1 7.54976 8.1H7.82464C7.90966 8.1 7.98108 8.16395 7.99047 8.24849L8.35673 11.5462Z" fill="#EA5448"/>
<path fill-rule="evenodd" clip-rule="evenodd" d="M13.5971 16.625C13.5971 15.8656 14.2125 15.25 14.9715 15.25C15.7306 15.25 16.3459 15.8656 16.3459 16.625C16.3459 17.3844 15.7306 18 14.9715 18C14.2125 18 13.5971 17.3844 13.5971 16.625Z" fill="#EA5448"/>
<path fill-rule="evenodd" clip-rule="evenodd" d="M8.64929 16.625C8.64929 15.8656 9.26463 15.25 10.0237 15.25C10.7828 15.25 11.3981 15.8656 11.3981 16.625C11.3981 17.3844 10.7828 18 10.0237 18C9.26463 18 8.64929 17.3844 8.64929 16.625Z" fill="#EA5448"/>
</svg>
