<svg width="25" height="25" viewBox="0 0 25 25" fill="none" xmlns="http://www.w3.org/2000/svg">
<circle cx="12.5" cy="12.5" r="12" stroke="black"/>
<path d="M19.3528 17.2414C19.3528 16.6181 18.8474 16.1129 18.2241 16.1129C17.6008 16.1129 17.0955 16.6181 17.0955 17.2414C17.0955 17.8648 17.6008 18.37 18.2241 18.37C18.8474 18.37 19.3528 17.8648 19.3528 17.2414Z" fill="#EA5448"/>
<path d="M12.6714 11.0021C12.2402 11.8661 12.0251 12.8088 12.0618 13.496C12.0791 13.8173 12.257 14.2964 12.677 14.2997C12.6809 14.2997 12.6847 14.2997 12.6887 14.2997C13.0851 14.2997 13.1864 14.1438 13.2561 13.9841C13.562 13.2812 13.2376 12.0497 12.6714 11.0021ZM6.23661 17.3169C6.22426 17.2316 5.93493 15.2033 6.01351 13.0037C6.12914 9.76216 6.99398 7.82046 8.58431 7.23275C9.95274 6.72661 11.4084 7.05508 12.6528 8.12924C13.6235 7.28798 14.7523 6.90839 15.9356 7.03016C17.1754 7.15798 18.7514 8.03787 19.2185 11.5044C19.4655 13.3365 19.2971 15.0953 19.2898 15.1694L17.5215 14.995C17.7105 13.0524 17.5272 8.98046 15.7534 8.79771C15.0699 8.72624 14.4223 8.95068 13.8272 9.46273C14.9977 11.1754 15.4733 13.3425 14.8851 14.6936C14.5018 15.5733 13.7015 16.0763 12.687 16.0763C12.6791 16.0763 12.6714 16.0763 12.6634 16.0763C11.5485 16.068 10.3744 15.2114 10.2876 13.5912C10.2256 12.434 10.6269 10.8245 11.4969 9.47792C10.9137 8.96976 10.1118 8.56204 9.20031 8.89934C8.3901 9.19877 7.87603 10.7101 7.78997 13.0457C7.71468 15.0879 7.99233 17.0429 7.99518 17.0625L6.23661 17.3169Z" fill="#2B2A29"/>
</svg>
