<svg width="14" height="14" viewBox="0 0 14 14" fill="none" xmlns="http://www.w3.org/2000/svg">
<path d="M9.933 0H4.067C1.519 0 0 1.519 0 4.067V9.926C0 12.481 1.519 14 4.067 14H9.926C12.474 14 13.993 12.481 13.993 9.933V4.067C14 1.519 12.481 0 9.933 0ZM7 9.716C5.502 9.716 4.284 8.498 4.284 7C4.284 5.502 5.502 4.284 7 4.284C8.498 4.284 9.716 5.502 9.716 7C9.716 8.498 8.498 9.716 7 9.716ZM11.144 3.416C11.109 3.5 11.06 3.577 10.997 3.647C10.927 3.71 10.85 3.759 10.766 3.794C10.682 3.829 10.591 3.85 10.5 3.85C10.311 3.85 10.136 3.78 10.003 3.647C9.94 3.577 9.891 3.5 9.856 3.416C9.821 3.332 9.8 3.241 9.8 3.15C9.8 3.059 9.821 2.968 9.856 2.884C9.891 2.793 9.94 2.723 10.003 2.653C10.164 2.492 10.409 2.415 10.633 2.464C10.682 2.471 10.724 2.485 10.766 2.506C10.808 2.52 10.85 2.541 10.892 2.569C10.927 2.59 10.962 2.625 10.997 2.653C11.06 2.723 11.109 2.793 11.144 2.884C11.179 2.968 11.2 3.059 11.2 3.15C11.2 3.241 11.179 3.332 11.144 3.416Z" fill="#D2D2D2"/>
</svg>
