<svg width="14" height="10" viewBox="0 0 14 10" fill="none" xmlns="http://www.w3.org/2000/svg">
<path d="M12.0398 0.208087C12.0398 0.208087 10.3856 0 6.83322 0C3.39605 0 1.66594 0.208087 1.66594 0.208087C1.22405 0.208252 0.800311 0.383909 0.487905 0.696432C0.175498 1.00896 8.56284e-08 1.43276 1.16506e-07 1.87465V8.12597C-8.17142e-05 8.34483 0.0429441 8.56156 0.126621 8.76379C0.210298 8.96601 0.332988 9.14978 0.487684 9.30459C0.642381 9.45941 0.826056 9.58223 1.02822 9.66606C1.23039 9.74989 1.44708 9.79308 1.66594 9.79316C1.66594 9.79316 3.27456 10 6.83322 10C10.39 10 12.0398 9.79316 12.0398 9.79316C12.2587 9.79332 12.4755 9.75031 12.6779 9.66657C12.8802 9.58284 13.064 9.46003 13.2188 9.30518C13.3736 9.15033 13.4963 8.96647 13.58 8.76413C13.6636 8.56178 13.7066 8.34493 13.7063 8.12597V1.8734C13.7063 1.65461 13.6632 1.43795 13.5794 1.23583C13.4957 1.0337 13.3729 0.850061 13.2181 0.695406C13.0633 0.540751 12.8796 0.418111 12.6774 0.334494C12.4752 0.250877 12.2585 0.207923 12.0398 0.208087ZM5.02212 7.47617V2.52632L9.4667 4.99969L5.02212 7.47617Z" fill="#D2D2D2"/>
</svg>
