<svg width="37" height="36" viewBox="0 0 37 36" fill="none" xmlns="http://www.w3.org/2000/svg">
<path d="M17.6973 22.4137C17.6973 22.526 17.7419 22.6337 17.8213 22.7131C17.9007 22.7925 18.0084 22.8371 18.1206 22.8371C18.2329 22.8371 18.3406 22.7925 18.42 22.7131C18.4994 22.6337 18.544 22.526 18.544 22.4137C18.544 22.3014 18.4994 22.1938 18.42 22.1144C18.3406 22.035 18.2329 21.9904 18.1206 21.9904C18.0084 21.9904 17.9007 22.035 17.8213 22.1144C17.7419 22.1938 17.6973 22.3014 17.6973 22.4137Z" fill="#E73B37"/>
<path d="M17.6802 24.1368C17.6802 24.2491 17.7248 24.3568 17.8042 24.4362C17.8836 24.5156 17.9913 24.5602 18.1036 24.5602C18.2158 24.5602 18.3235 24.5156 18.4029 24.4362C18.4823 24.3568 18.5269 24.2491 18.5269 24.1368C18.5269 24.0245 18.4823 23.9168 18.4029 23.8374C18.3235 23.758 18.2158 23.7134 18.1036 23.7134C17.9913 23.7134 17.8836 23.758 17.8042 23.8374C17.7248 23.9168 17.6802 24.0245 17.6802 24.1368Z" fill="#E73B37"/>
<path d="M17.7141 25.8642C17.7141 25.9765 17.7587 26.0842 17.8381 26.1635C17.9175 26.2429 18.0252 26.2876 18.1375 26.2876C18.2498 26.2876 18.3575 26.2429 18.4369 26.1635C18.5163 26.0842 18.5609 25.9765 18.5609 25.8642C18.5609 25.7519 18.5163 25.6442 18.4369 25.5648C18.3575 25.4854 18.2498 25.4408 18.1375 25.4408C18.0252 25.4408 17.9175 25.4854 17.8381 25.5648C17.7587 25.6442 17.7141 25.7519 17.7141 25.8642Z" fill="#E73B37"/>
<path d="M18.1207 1.86287C19.9031 1.86287 21.5797 2.55721 22.8413 3.81889C24.103 5.08056 24.7974 6.75714 24.7974 8.53957C24.7974 10.322 24.103 11.9986 22.8413 13.2603C21.5797 14.5219 19.9031 15.2163 18.1207 15.2163C16.3382 15.2163 14.6616 14.5219 13.4 13.2603C12.1383 11.9986 11.444 10.322 11.444 8.53957C11.444 6.75714 12.1383 5.08056 13.4 3.81889C14.6616 2.55721 16.3382 1.86287 18.1207 1.86287ZM18.1207 0C13.4042 0 9.58532 3.82312 9.58532 8.53534C9.58532 13.2518 13.4084 17.0707 18.1207 17.0707C22.8371 17.0707 26.656 13.2476 26.656 8.53534C26.656 3.82312 22.8329 0 18.1207 0ZM18.1334 18.489L0 25.1742V36H36.2413V25.1742L18.1334 18.489ZM34.3784 34.1371H1.86287V26.4951L18.1334 20.4662L34.3784 26.4951V34.1371Z" fill="#39393A"/>
<path d="M19.958 21.1056L19.8988 21.0844V27.8543C19.8988 28.3496 19.6955 28.7984 19.3738 29.1244C19.0478 29.4504 18.599 29.6494 18.1036 29.6494C17.1129 29.6494 16.3085 28.845 16.3085 27.8543V21.1056L16.2492 21.1267L15.6311 21.3469V27.8585C15.6311 29.2218 16.7404 30.331 18.1036 30.331C19.4669 30.331 20.5762 29.2218 20.5762 27.8585V21.3257L19.958 21.1056Z" fill="#E73B37"/>
</svg>
