<svg width="38" height="36" viewBox="0 0 38 36" fill="none" xmlns="http://www.w3.org/2000/svg">
<path d="M37.2776 7.02959H7.56616L6.06458 0H0V1.83019H4.58379L5.69438 7.02959L9.86638 26.5752L31.9118 26.5918V24.7616L11.3472 24.7491L10.4071 20.3442H31.9493L37.2776 7.02959ZM34.5739 8.85977L32.9309 12.9611H8.83482L7.95716 8.85977H34.5739ZM10.0203 18.514L8.97624 13.6266H32.6647L30.7097 18.514H10.0203Z" fill="#39393A"/>
<path d="M12.9651 29.9984C14.1588 29.9984 15.128 30.9676 15.128 32.1614C15.128 33.3551 14.1588 34.3243 12.9651 34.3243C11.7713 34.3243 10.8021 33.3551 10.8021 32.1614C10.8021 30.9676 11.7713 29.9984 12.9651 29.9984ZM12.9651 29.1665C11.3137 29.1665 9.97021 30.5059 9.97021 32.1614C9.97021 33.8168 11.3096 35.1562 12.9651 35.1562C14.6206 35.1562 15.9599 33.8168 15.9599 32.1614C15.9599 30.5059 14.6164 29.1665 12.9651 29.1665ZM27.7896 29.9984C28.9834 29.9984 29.9525 30.9676 29.9525 32.1614C29.9525 33.3551 28.9834 34.3243 27.7896 34.3243C26.5958 34.3243 25.6266 33.3551 25.6266 32.1614C25.6266 30.9676 26.5958 29.9984 27.7896 29.9984ZM27.7896 29.1665C26.1383 29.1665 24.7947 30.5059 24.7947 32.1614C24.7947 33.8168 26.1341 35.1562 27.7896 35.1562C29.4409 35.1562 30.7844 33.8168 30.7844 32.1614C30.7844 30.5059 29.4409 29.1665 27.7896 29.1665ZM15.9558 8.85974H16.6213V18.514H15.9558V8.85974ZM24.462 8.85974H25.1275V18.514H24.462V8.85974Z" fill="#E73B37"/>
</svg>
