<svg width="105" height="24" viewBox="0 0 105 24" fill="none" xmlns="http://www.w3.org/2000/svg">
<path d="M39.0149 14.8686C39.2117 14.6592 39.3728 14.4498 39.4983 14.2403C39.6234 14.0312 39.6863 13.8388 39.6863 13.664V12.2759C39.2566 12.1017 38.791 11.9664 38.2897 11.8705C37.7882 11.7746 37.3137 11.7264 36.8665 11.7264C35.9355 11.7264 35.1698 11.9226 34.5704 12.3157C33.9701 12.7084 33.6704 13.2278 33.6704 13.8736C33.6704 14.2229 33.7687 14.5547 33.966 14.8686C34.1628 15.1829 34.4493 15.436 34.8254 15.6281C35.2014 15.8202 35.6486 15.9161 36.1683 15.9161C36.7053 15.9161 37.2332 15.8156 37.7526 15.615C38.2716 15.4147 38.6926 15.1657 39.0149 14.8686ZM30.2598 14.1696C30.2598 13.2671 30.515 12.4757 31.0253 11.7949C31.5357 11.1135 32.247 10.5874 33.1603 10.2158C34.0733 9.84407 35.1207 9.65841 36.3024 9.65841C36.8934 9.65841 37.4928 9.70329 38.1019 9.79276C38.7102 9.88251 39.2385 10.0257 39.6863 10.2224V9.47389C39.6863 8.59519 39.4217 7.91829 38.8942 7.44335C38.3655 6.9687 37.5823 6.73087 36.544 6.73087C35.7741 6.73087 35.04 6.86551 34.342 7.13392C33.6437 7.40248 32.9093 7.79666 32.1397 8.31577L30.985 5.95221C31.9157 5.34392 32.869 4.88742 33.845 4.58256C34.8205 4.27842 35.846 4.12592 36.9201 4.12592C38.9253 4.12592 40.4875 4.62029 41.6066 5.60905C42.725 6.59752 43.285 8.00919 43.285 9.84478V14.2665C43.285 14.6372 43.352 14.9022 43.4865 15.0608C43.6207 15.2198 43.84 15.3168 44.1442 15.3518V18.2792C43.8222 18.333 43.5309 18.3776 43.2717 18.4136C43.012 18.4493 42.7926 18.4675 42.6137 18.4675C41.8972 18.4675 41.3556 18.3062 40.9889 17.9841C40.6216 17.6619 40.3932 17.2677 40.304 16.8022L40.2235 16.077C39.6145 16.8653 38.8539 17.4736 37.9407 17.9035C37.0274 18.333 36.0965 18.5479 35.1477 18.5479C34.2162 18.5479 33.3794 18.3573 32.6363 17.9777C31.8935 17.5976 31.3111 17.0752 30.8908 16.4121C30.47 15.7486 30.2598 15.0012 30.2598 14.1696Z" fill="#DADADA"/>
<path d="M54.6455 15.4862C55.1647 15.4862 55.6342 15.3907 56.0553 15.1985C56.4759 15.0065 56.861 14.7405 57.2103 14.4004C57.5593 14.0605 57.868 13.672 58.1366 13.2357V9.9424C58.047 9.55779 57.8813 9.19919 57.6401 8.86717C57.3982 8.53459 57.1115 8.24188 56.7804 7.98776C56.4489 7.73435 56.0953 7.53783 55.7197 7.39719C55.3437 7.25798 54.9674 7.18752 54.5916 7.18752C54.0365 7.18752 53.5307 7.30186 53.0743 7.53011C52.6177 7.7585 52.219 8.07022 51.8793 8.46541C51.5386 8.86074 51.279 9.30853 51.1004 9.80905C50.9211 10.3097 50.832 10.8411 50.832 11.4027C50.832 12.1582 50.9927 12.8434 51.3153 13.4578C51.6373 14.0725 52.0847 14.5645 52.658 14.9332C53.2308 15.302 53.8936 15.4862 54.6455 15.4862ZM53.3024 18.5479C52.4073 18.5479 51.5837 18.3573 50.832 17.9768C50.0799 17.5962 49.426 17.0785 48.8713 16.4232C48.3162 15.7682 47.891 14.9977 47.5957 14.1124C47.3003 13.2268 47.1523 12.2889 47.1523 11.297C47.1523 10.288 47.3177 9.34983 47.6493 8.48185C47.9802 7.61458 48.4414 6.85307 49.0325 6.1979C49.6232 5.54259 50.3216 5.03363 51.1272 4.67089C51.9329 4.30772 52.8009 4.12592 53.7323 4.12592C54.8063 4.12592 55.7552 4.36975 56.5787 4.85669C57.4022 5.34335 58.0736 5.98537 58.5932 6.78175V4.34088H61.7356V24H58.1366V15.8388C57.0624 17.6448 55.451 18.5479 53.3024 18.5479Z" fill="#DADADA"/>
<path d="M74.143 14.8686C74.3397 14.6592 74.5009 14.4498 74.6262 14.2403C74.7513 14.0312 74.8143 13.8388 74.8143 13.664V12.2759C74.3847 12.1017 73.9189 11.9664 73.4177 11.8705C72.9164 11.7746 72.4419 11.7264 71.9946 11.7264C71.0633 11.7264 70.2979 11.9226 69.6983 12.3157C69.098 12.7084 68.7985 13.2278 68.7985 13.8736C68.7985 14.2229 68.8967 14.5547 69.0938 14.8686C69.2908 15.1829 69.5774 15.436 69.9536 15.6281C70.3293 15.8202 70.7767 15.9161 71.2964 15.9161C71.8333 15.9161 72.3613 15.8156 72.8804 15.615C73.3998 15.4147 73.8206 15.1657 74.143 14.8686ZM65.3877 14.1696C65.3877 13.2671 65.643 12.4757 66.1534 11.7949C66.6636 11.1135 67.3749 10.5874 68.2881 10.2158C69.2017 9.84407 70.2487 9.65841 71.4301 9.65841C72.0213 9.65841 72.621 9.70329 73.2299 9.79276C73.8383 9.88251 74.3667 10.0257 74.8143 10.2224V9.47389C74.8143 8.59519 74.5499 7.91829 74.0222 7.44335C73.4938 6.9687 72.7103 6.73087 71.672 6.73087C70.9022 6.73087 70.1681 6.86551 69.4702 7.13392C68.7717 7.40248 68.0374 7.79666 67.2677 8.31577L66.113 5.95221C67.0436 5.34392 67.9972 4.88742 68.9733 4.58256C69.9486 4.27842 70.9739 4.12592 72.048 4.12592C74.0535 4.12592 75.6154 4.62029 76.7345 5.60905C77.8531 6.59752 78.4132 8.00919 78.4132 9.84478V14.2665C78.4132 14.6372 78.4801 14.9022 78.6146 15.0608C78.7486 15.2198 78.9679 15.3168 79.2723 15.3518V18.2792C78.9503 18.333 78.6589 18.3776 78.3996 18.4136C78.1398 18.4493 77.9202 18.4675 77.7414 18.4675C77.0254 18.4675 76.4836 18.3062 76.1169 17.9841C75.7495 17.6619 75.5215 17.2677 75.4321 16.8022L75.3516 16.077C74.7424 16.8653 73.9819 17.4736 73.0689 17.9035C72.1554 18.333 71.2245 18.5479 70.2757 18.5479C69.3446 18.5479 68.5073 18.3573 67.7644 17.9777C67.0215 17.5976 66.4392 17.0752 66.019 16.4121C65.5979 15.7486 65.3877 15.0012 65.3877 14.1696Z" fill="#DADADA"/>
<path d="M104.974 18.2792H101.375V10.4978C101.375 9.40372 101.182 8.59605 100.797 8.07608C100.412 7.55569 99.8793 7.29514 99.1994 7.29514C98.5011 7.29514 97.8337 7.56455 97.1986 8.10252C96.5626 8.64092 96.1109 9.34212 95.8427 10.2064V18.2792H92.2435V10.4978C92.2435 9.38599 92.0511 8.57461 91.6661 8.06265C91.2808 7.55112 90.7484 7.29514 90.0682 7.29514C89.3701 7.29514 88.7028 7.55755 88.0675 8.08194C87.4317 8.60662 86.9799 9.29709 86.7114 10.1535V18.2792H83.1123V4.34088H86.3619V6.94111C86.899 6.0384 87.6152 5.34335 88.5107 4.85669C89.4057 4.36975 90.4351 4.12592 91.5991 4.12592C92.7626 4.12592 93.6713 4.40934 94.3251 4.97603C94.9782 5.5423 95.3949 6.24178 95.574 7.07346C96.1468 6.11786 96.8766 5.38752 97.7624 4.88313C98.649 4.37861 99.6468 4.12592 100.757 4.12592C101.634 4.12592 102.346 4.28128 102.892 4.59085C103.438 4.90086 103.863 5.31691 104.168 5.83887C104.472 6.36112 104.682 6.94998 104.799 7.60486C104.915 8.25974 104.974 8.92334 104.974 9.59624V18.2792Z" fill="#DADADA"/>
<path d="M26.3543 20.2131C26.3543 18.9829 25.3571 17.9857 24.1269 17.9857C22.8966 17.9857 21.8994 18.9829 21.8994 20.2131C21.8994 21.4432 22.8966 22.4407 24.1269 22.4407C25.3571 22.4407 26.3543 21.4432 26.3543 20.2131Z" fill="#DADADA"/>
<path d="M13.1672 7.89876C12.3161 9.60428 11.8915 11.4645 11.9639 12.8208C11.9978 13.4548 12.3491 14.4006 13.1779 14.4069C13.1858 14.4069 13.1934 14.4069 13.2011 14.4069C13.9836 14.4069 14.1834 14.0994 14.3209 13.7841C14.9248 12.3969 14.2843 9.96617 13.1672 7.89876ZM0.467009 20.362C0.442712 20.1936 -0.128418 16.1904 0.0266554 11.8492C0.254907 5.45145 1.96186 1.61948 5.1005 0.45921C7.80136 -0.539409 10.6743 0.108615 13.1303 2.22848C15.046 0.568263 17.2742 -0.180666 19.6093 0.0594486C22.0563 0.311712 25.1665 2.0484 26.0888 8.88994C26.5762 12.5059 26.2437 15.9773 26.2291 16.1234L22.7395 15.7792C23.1124 11.9451 22.7506 3.90871 19.2497 3.54797C17.9007 3.40704 16.6224 3.85011 15.4481 4.86045C17.7584 8.24078 18.697 12.5178 17.536 15.1842C16.7798 16.9208 15.2002 17.9137 13.1976 17.9137C13.1822 17.9137 13.1668 17.9137 13.1511 17.9137C10.9507 17.8968 8.63347 16.2064 8.46225 13.0086C8.3399 10.7248 9.13185 7.5483 10.849 4.89046C9.69798 3.88756 8.11522 3.08275 6.31622 3.74864C4.71732 4.33963 3.70269 7.32248 3.5329 11.932C3.38426 15.9625 3.93194 19.821 3.9378 19.8597L0.467009 20.362Z" fill="#DADADA"/>
</svg>
