<svg width="158" height="36" viewBox="0 0 158 36" fill="none" xmlns="http://www.w3.org/2000/svg">
<path d="M58.5218 22.303C58.817 21.989 59.0587 21.6749 59.2469 21.3606C59.4345 21.0469 59.5288 20.7584 59.5288 20.4962V18.4141C58.8844 18.1527 58.1859 17.9497 57.434 17.8058C56.6818 17.662 55.97 17.5897 55.2992 17.5897C53.9027 17.5897 52.7542 17.8841 51.8551 18.4737C50.9546 19.0628 50.5051 19.8419 50.5051 20.8105C50.5051 21.3344 50.6526 21.8322 50.9484 22.303C51.2436 22.7745 51.6735 23.1541 52.2375 23.4423C52.8016 23.7304 53.4724 23.8743 54.2519 23.8743C55.0574 23.8743 55.8493 23.7236 56.6284 23.4226C57.4068 23.1222 58.0384 22.7487 58.5218 22.303ZM45.3892 21.2545C45.3892 19.9008 45.7721 18.7138 46.5374 17.6924C47.303 16.6704 48.37 15.8813 49.7399 15.3239C51.1094 14.7663 52.6804 14.4878 54.453 14.4878C55.3395 14.4878 56.2386 14.5551 57.1523 14.6893C58.0648 14.8239 58.8571 15.0388 59.5288 15.3337V14.211C59.5288 12.893 59.132 11.8776 58.3407 11.1652C57.5477 10.4532 56.3728 10.0965 54.8155 10.0965C53.6606 10.0965 52.5595 10.2984 51.5125 10.7011C50.465 11.1039 49.3635 11.6952 48.209 12.4738L46.477 8.92852C47.873 8.01609 49.303 7.33134 50.767 6.87405C52.2302 6.41784 53.7685 6.18909 55.3796 6.18909C58.3874 6.18909 60.7307 6.93065 62.4093 8.41378C64.0869 9.89647 64.9269 12.014 64.9269 14.7673V21.3998C64.9269 21.9559 65.0274 22.3534 65.2291 22.5914C65.4304 22.8298 65.7593 22.9753 66.2157 23.0279V27.4189C65.7327 27.4995 65.2958 27.5664 64.9069 27.6205C64.5174 27.6741 64.1883 27.7013 63.9199 27.7013C62.8452 27.7013 62.0329 27.4595 61.4827 26.9762C60.9318 26.493 60.5892 25.9017 60.4554 25.2035L60.3347 24.1157C59.4212 25.298 58.2802 26.2104 56.9105 26.8553C55.5406 27.4995 54.1443 27.822 52.721 27.822C51.3238 27.822 50.0686 27.536 48.954 26.9666C47.8398 26.3965 46.9662 25.6129 46.3357 24.6182C45.7045 23.623 45.3892 22.502 45.3892 21.2545Z" fill="#2B2A29"/>
<path d="M81.9669 23.2294C82.7458 23.2294 83.4501 23.0862 84.0817 22.7978C84.7126 22.5099 85.2901 22.1109 85.8141 21.6007C86.3376 21.0909 86.8007 20.5082 87.2035 19.8537V14.9138C87.0691 14.3368 86.8207 13.799 86.4588 13.3009C86.096 12.8021 85.666 12.363 85.1692 11.9818C84.6721 11.6017 84.1417 11.3069 83.5783 11.096C83.0142 10.8872 82.4497 10.7815 81.8861 10.7815C81.0534 10.7815 80.2947 10.953 79.6102 11.2953C78.9252 11.6379 78.3273 12.1055 77.8177 12.6983C77.3066 13.2913 76.9173 13.963 76.6493 14.7137C76.3805 15.4647 76.2467 16.2618 76.2467 17.1042C76.2467 18.2374 76.4879 19.2652 76.9717 20.1868C77.4547 21.1089 78.1258 21.8468 78.9857 22.3999C79.8449 22.953 80.8391 23.2294 81.9669 23.2294ZM79.9523 27.822C78.6096 27.822 77.3744 27.536 76.2467 26.9653C75.1186 26.3944 74.1378 25.6179 73.3057 24.6349C72.473 23.6524 71.8352 22.4966 71.3923 21.1687C70.9492 19.8404 70.7273 18.4336 70.7273 16.9457C70.7273 15.4322 70.9753 14.0249 71.4727 12.7229C71.969 11.422 72.6608 10.2798 73.5475 9.29705C74.4336 8.31409 75.4811 7.55066 76.6896 7.00654C77.8981 6.46179 79.2001 6.18909 80.5972 6.18909C82.2081 6.18909 83.6314 6.55483 84.8667 7.28525C86.102 8.01523 87.109 8.97826 87.8885 10.1728V6.51153H92.602V36H87.2035V23.7583C85.5922 26.4673 83.1752 27.822 79.9523 27.822Z" fill="#2B2A29"/>
<path d="M111.212 22.303C111.507 21.989 111.749 21.6749 111.937 21.3606C112.125 21.0469 112.219 20.7584 112.219 20.4962V18.4141C111.575 18.1527 110.876 17.9497 110.124 17.8058C109.373 17.662 108.661 17.5897 107.99 17.5897C106.593 17.5897 105.445 17.8841 104.545 18.4737C103.645 19.0628 103.196 19.8419 103.196 20.8105C103.196 21.3344 103.343 21.8322 103.639 22.303C103.934 22.7745 104.364 23.1541 104.928 23.4423C105.492 23.7304 106.163 23.8743 106.943 23.8743C107.748 23.8743 108.54 23.7236 109.319 23.4226C110.098 23.1222 110.729 22.7487 111.212 22.303ZM98.0796 21.2545C98.0796 19.9008 98.4625 18.7138 99.2281 17.6924C99.9934 16.6704 101.06 15.8813 102.43 15.3239C103.8 14.7663 105.371 14.4878 107.143 14.4878C108.03 14.4878 108.929 14.5551 109.843 14.6893C110.755 14.8239 111.548 15.0388 112.219 15.3337V14.211C112.219 12.893 111.823 11.8776 111.031 11.1652C110.239 10.4532 109.063 10.0965 107.506 10.0965C106.351 10.0965 105.25 10.2984 104.203 10.7011C103.156 11.1039 102.054 11.6952 100.9 12.4738L99.1676 8.92852C100.563 8.01609 101.994 7.33134 103.458 6.87405C104.921 6.41784 106.459 6.18909 108.07 6.18909C111.078 6.18909 113.421 6.93065 115.1 8.41378C116.778 9.89647 117.618 12.014 117.618 14.7673V21.3998C117.618 21.9559 117.718 22.3534 117.92 22.5914C118.121 22.8298 118.45 22.9753 118.906 23.0279V27.4189C118.423 27.4995 117.986 27.5664 117.597 27.6205C117.208 27.6741 116.878 27.7013 116.61 27.7013C115.536 27.7013 114.723 27.4595 114.173 26.9762C113.622 26.493 113.28 25.9017 113.146 25.2035L113.025 24.1157C112.112 25.298 110.971 26.2104 109.601 26.8553C108.231 27.4995 106.835 27.822 105.412 27.822C104.015 27.822 102.759 27.536 101.645 26.9666C100.53 26.3965 99.6568 25.6129 99.0265 24.6182C98.395 23.623 98.0796 22.502 98.0796 21.2545Z" fill="#2B2A29"/>
<path d="M157.458 27.4189H152.06V15.7469C152.06 14.1057 151.771 12.8942 151.194 12.1143C150.616 11.3337 149.817 10.9429 148.797 10.9429C147.75 10.9429 146.749 11.347 145.796 12.154C144.842 12.9616 144.165 14.0133 143.762 15.3097V27.4189H138.363V15.7469C138.363 14.0792 138.075 12.8621 137.497 12.0942C136.919 11.3269 136.121 10.9429 135.101 10.9429C134.053 10.9429 133.052 11.3365 132.1 12.1231C131.146 12.9101 130.468 13.9458 130.065 15.2304V27.4189H124.667V6.51153H129.541V10.4119C130.347 9.05779 131.421 8.01523 132.764 7.28525C134.107 6.55483 135.651 6.18909 137.397 6.18909C139.142 6.18909 140.505 6.61422 141.486 7.46426C142.466 8.31366 143.09 9.36287 143.359 10.6104C144.218 9.17699 145.313 8.08148 146.642 7.32491C147.972 6.56812 149.468 6.18909 151.134 6.18909C152.449 6.18909 153.517 6.42213 154.336 6.88649C155.155 7.35149 155.793 7.97557 156.25 8.75851C156.706 9.54188 157.021 10.4252 157.196 11.4075C157.371 12.3898 157.458 13.3852 157.458 14.3945V27.4189Z" fill="#2B2A29"/>
<path d="M39.5296 30.3193C39.5296 28.474 38.0339 26.9783 36.1886 26.9783C34.3432 26.9783 32.8474 28.474 32.8474 30.3193C32.8474 32.1645 34.3432 33.6607 36.1886 33.6607C38.0339 33.6607 39.5296 32.1645 39.5296 30.3193Z" fill="#EA5448"/>
<path d="M19.7507 11.8481C18.474 14.4063 17.8371 17.1966 17.9458 19.2311C17.9966 20.1821 18.5235 21.6007 19.7668 21.6102C19.7786 21.6102 19.7899 21.6102 19.8015 21.6102C20.9753 21.6102 21.275 21.149 21.4812 20.6761C22.387 18.5952 21.4263 14.9492 19.7507 11.8481ZM0.700509 30.5428C0.664063 30.2902 -0.192627 24.2855 0.0399829 17.7737C0.382358 8.17712 2.94278 2.4292 7.65071 0.688811C11.702 -0.809108 16.0114 0.162922 19.6954 3.3427C22.5688 0.852389 25.9111 -0.270997 29.4137 0.0891724C33.0842 0.467565 37.7495 3.07258 39.1329 13.3348C39.864 18.7588 39.3653 23.9658 39.3435 24.1849L34.109 23.6687C34.6683 17.9176 34.1257 5.86303 28.8743 5.32192C26.851 5.11054 24.9335 5.77513 23.1721 7.29063C26.6374 12.3611 28.0453 18.7766 26.3038 22.7762C25.1695 25.381 22.8001 26.8703 19.7963 26.8703C19.7732 26.8703 19.75 26.8703 19.7265 26.8703C16.426 26.845 12.9501 24.3095 12.6933 19.5128C12.5098 16.0871 13.6977 11.3224 16.2733 7.33565C14.5469 5.8313 12.1728 4.62409 9.47428 5.62292C7.07594 6.50941 5.55401 10.9837 5.29932 17.8978C5.07635 23.9435 5.89788 29.7313 5.90667 29.7894L0.700509 30.5428Z" fill="#2B2A29"/>
</svg>
