<svg width="158" height="36" viewBox="0 0 158 36" fill="none" xmlns="http://www.w3.org/2000/svg">
<path d="M58.5218 22.3029C58.817 21.9888 59.0587 21.6748 59.2469 21.3605C59.4345 21.0468 59.5288 20.7582 59.5288 20.4961V18.4139C58.8844 18.1526 58.1859 17.9496 57.434 17.8057C56.6818 17.6619 55.97 17.5896 55.2992 17.5896C53.9027 17.5896 52.7542 17.884 51.8551 18.4735C50.9546 19.0627 50.5051 19.8417 50.5051 20.8103C50.5051 21.3343 50.6526 21.8321 50.9484 22.3029C51.2436 22.7743 51.6735 23.154 52.2375 23.4422C52.8016 23.7303 53.4724 23.8741 54.2519 23.8741C55.0574 23.8741 55.8493 23.7234 56.6284 23.4224C57.4068 23.1221 58.0384 22.7486 58.5218 22.3029ZM45.3892 21.2543C45.3892 19.9007 45.7721 18.7136 46.5374 17.6923C47.303 16.6703 48.37 15.8812 49.7399 15.3238C51.1094 14.7661 52.6804 14.4877 54.453 14.4877C55.3395 14.4877 56.2386 14.555 57.1523 14.6892C58.0648 14.8238 58.8571 15.0386 59.5288 15.3336V14.2109C59.5288 12.8928 59.132 11.8775 58.3407 11.1651C57.5477 10.4531 56.3728 10.0964 54.8155 10.0964C53.6606 10.0964 52.5595 10.2983 51.5125 10.7009C50.465 11.1038 49.3635 11.6951 48.209 12.4737L46.477 8.9284C47.873 8.01597 49.303 7.33122 50.767 6.87393C52.2302 6.41771 53.7685 6.18896 55.3796 6.18896C58.3874 6.18896 60.7307 6.93053 62.4093 8.41366C64.0869 9.89635 64.9269 12.0138 64.9269 14.7672V21.3997C64.9269 21.9558 65.0274 22.3533 65.2291 22.5913C65.4304 22.8297 65.7593 22.9752 66.2157 23.0277V27.4188C65.7327 27.4994 65.2958 27.5663 64.9069 27.6203C64.5174 27.6739 64.1883 27.7012 63.9199 27.7012C62.8452 27.7012 62.0329 27.4593 61.4827 26.9761C60.9318 26.4929 60.5892 25.9016 60.4554 25.2033L60.3347 24.1155C59.4212 25.2979 58.2802 26.2103 56.9105 26.8552C55.5406 27.4994 54.1443 27.8219 52.721 27.8219C51.3238 27.8219 50.0686 27.5359 48.954 26.9665C47.8398 26.3964 46.9662 25.6128 46.3357 24.6181C45.7045 23.6229 45.3892 22.5019 45.3892 21.2543Z" fill="#2B2A29"/>
<path d="M81.9669 23.2293C82.7458 23.2293 83.4501 23.0861 84.0817 22.7977C84.7126 22.5098 85.2901 22.1108 85.8141 21.6006C86.3376 21.0908 86.8007 20.5081 87.2035 19.8535V14.9136C87.0691 14.3367 86.8207 13.7988 86.4588 13.3008C86.096 12.8019 85.666 12.3629 85.1692 11.9817C84.6721 11.6016 84.1417 11.3068 83.5783 11.0958C83.0142 10.887 82.4497 10.7813 81.8861 10.7813C81.0534 10.7813 80.2947 10.9529 79.6102 11.2952C78.9252 11.6378 78.3273 12.1054 77.8177 12.6982C77.3066 13.2912 76.9173 13.9628 76.6493 14.7136C76.3805 15.4646 76.2467 16.2617 76.2467 17.104C76.2467 18.2373 76.4879 19.265 76.9717 20.1867C77.4547 21.1088 78.1258 21.8467 78.9857 22.3998C79.8449 22.9529 80.8391 23.2293 81.9669 23.2293ZM79.9523 27.8219C78.6096 27.8219 77.3744 27.5359 76.2467 26.9652C75.1186 26.3943 74.1378 25.6178 73.3057 24.6348C72.473 23.6523 71.8352 22.4965 71.3923 21.1686C70.9492 19.8402 70.7273 18.4334 70.7273 16.9456C70.7273 15.432 70.9753 14.0248 71.4727 12.7228C71.969 11.4219 72.6608 10.2797 73.5475 9.29693C74.4336 8.31396 75.4811 7.55053 76.6896 7.00642C77.8981 6.46166 79.2001 6.18896 80.5972 6.18896C82.2081 6.18896 83.6314 6.55471 84.8667 7.28512C86.102 8.01511 87.109 8.97813 87.8885 10.1727V6.5114H92.602V35.9998H87.2035V23.7582C85.5922 26.4671 83.1752 27.8219 79.9523 27.8219Z" fill="#2B2A29"/>
<path d="M111.212 22.3029C111.507 21.9888 111.749 21.6748 111.937 21.3605C112.125 21.0468 112.219 20.7582 112.219 20.4961V18.4139C111.575 18.1526 110.876 17.9496 110.124 17.8057C109.373 17.6619 108.661 17.5896 107.99 17.5896C106.593 17.5896 105.445 17.884 104.545 18.4735C103.645 19.0627 103.196 19.8417 103.196 20.8103C103.196 21.3343 103.343 21.8321 103.639 22.3029C103.934 22.7743 104.364 23.154 104.928 23.4422C105.492 23.7303 106.163 23.8741 106.943 23.8741C107.748 23.8741 108.54 23.7234 109.319 23.4224C110.098 23.1221 110.729 22.7486 111.212 22.3029ZM98.0796 21.2543C98.0796 19.9007 98.4625 18.7136 99.2281 17.6923C99.9934 16.6703 101.06 15.8812 102.43 15.3238C103.8 14.7661 105.371 14.4877 107.143 14.4877C108.03 14.4877 108.929 14.555 109.843 14.6892C110.755 14.8238 111.548 15.0386 112.219 15.3336V14.2109C112.219 12.8928 111.823 11.8775 111.031 11.1651C110.239 10.4531 109.063 10.0964 107.506 10.0964C106.351 10.0964 105.25 10.2983 104.203 10.7009C103.156 11.1038 102.054 11.6951 100.9 12.4737L99.1676 8.9284C100.563 8.01597 101.994 7.33122 103.458 6.87393C104.921 6.41771 106.459 6.18896 108.07 6.18896C111.078 6.18896 113.421 6.93053 115.1 8.41366C116.778 9.89635 117.618 12.0138 117.618 14.7672V21.3997C117.618 21.9558 117.718 22.3533 117.92 22.5913C118.121 22.8297 118.45 22.9752 118.906 23.0277V27.4188C118.423 27.4994 117.986 27.5663 117.597 27.6203C117.208 27.6739 116.878 27.7012 116.61 27.7012C115.536 27.7012 114.723 27.4593 114.173 26.9761C113.622 26.4929 113.28 25.9016 113.146 25.2033L113.025 24.1155C112.112 25.2979 110.971 26.2103 109.601 26.8552C108.231 27.4994 106.835 27.8219 105.412 27.8219C104.015 27.8219 102.759 27.5359 101.645 26.9665C100.53 26.3964 99.6568 25.6128 99.0265 24.6181C98.395 23.6229 98.0796 22.5019 98.0796 21.2543Z" fill="#2B2A29"/>
<path d="M157.458 27.4188H152.06V15.7467C152.06 14.1056 151.771 12.8941 151.194 12.1142C150.616 11.3336 149.817 10.9428 148.797 10.9428C147.75 10.9428 146.749 11.3469 145.796 12.1538C144.842 12.9614 144.165 14.0132 143.762 15.3096V27.4188H138.363V15.7467C138.363 14.079 138.075 12.862 137.497 12.094C136.919 11.3267 136.121 10.9428 135.101 10.9428C134.053 10.9428 133.052 11.3364 132.1 12.123C131.146 12.91 130.468 13.9457 130.065 15.2303V27.4188H124.667V6.5114H129.541V10.4117C130.347 9.05767 131.421 8.01511 132.764 7.28512C134.107 6.55471 135.651 6.18896 137.397 6.18896C139.142 6.18896 140.505 6.61409 141.486 7.46414C142.466 8.31354 143.09 9.36274 143.359 10.6103C144.218 9.17687 145.313 8.08135 146.642 7.32478C147.972 6.568 149.468 6.18896 151.134 6.18896C152.449 6.18896 153.517 6.422 154.336 6.88637C155.155 7.35137 155.793 7.97545 156.25 8.75839C156.706 9.54176 157.021 10.425 157.196 11.4074C157.371 12.3897 157.458 13.3851 157.458 14.3944V27.4188Z" fill="#2B2A29"/>
<path d="M39.5296 30.319C39.5296 28.4738 38.0339 26.978 36.1886 26.978C34.3432 26.978 32.8474 28.4738 32.8474 30.319C32.8474 32.1642 34.3432 33.6605 36.1886 33.6605C38.0339 33.6605 39.5296 32.1642 39.5296 30.319Z" fill="#EA5448"/>
<path d="M19.7507 11.8481C18.474 14.4063 17.8371 17.1966 17.9458 19.2311C17.9966 20.1821 18.5235 21.6007 19.7668 21.6102C19.7786 21.6102 19.7899 21.6102 19.8015 21.6102C20.9753 21.6102 21.275 21.149 21.4812 20.6761C22.387 18.5952 21.4263 14.9492 19.7507 11.8481ZM0.700509 30.5428C0.664063 30.2902 -0.192627 24.2855 0.0399829 17.7737C0.382358 8.17712 2.94278 2.4292 7.65071 0.688811C11.702 -0.809108 16.0114 0.162922 19.6954 3.3427C22.5688 0.852389 25.9111 -0.270997 29.4137 0.0891724C33.0842 0.467565 37.7495 3.07258 39.1329 13.3348C39.864 18.7588 39.3653 23.9658 39.3435 24.1849L34.109 23.6687C34.6683 17.9176 34.1257 5.86303 28.8743 5.32192C26.851 5.11054 24.9335 5.77513 23.1721 7.29063C26.6374 12.3611 28.0453 18.7766 26.3038 22.7762C25.1695 25.381 22.8001 26.8703 19.7963 26.8703C19.7732 26.8703 19.75 26.8703 19.7265 26.8703C16.426 26.845 12.9501 24.3095 12.6933 19.5128C12.5098 16.0871 13.6977 11.3224 16.2733 7.33565C14.5469 5.8313 12.1728 4.62409 9.47428 5.62292C7.07594 6.50941 5.55401 10.9837 5.29932 17.8978C5.07635 23.9435 5.89788 29.7313 5.90667 29.7894L0.700509 30.5428Z" fill="#2B2A29"/>
</svg>
