<svg width="12" height="12" viewBox="0 0 12 12" fill="none" xmlns="http://www.w3.org/2000/svg">
<path d="M4.52821 0.98713L5.01496 1.85933C5.45424 2.64644 5.27791 3.679 4.58604 4.37086C4.58604 4.37086 3.74692 5.21011 5.26839 6.73164C6.78939 8.25264 7.62917 7.41399 7.62917 7.41399C8.32105 6.72212 9.35357 6.54579 10.1407 6.98507L11.0129 7.47182C12.2015 8.13512 12.3418 9.80192 11.2971 10.8467C10.6694 11.4744 9.90032 11.9629 9.0502 11.9951C7.61912 12.0494 5.18874 11.6872 2.75078 9.24925C0.31285 6.81129 -0.0493411 4.38093 0.00491407 2.94982C0.0371416 2.0997 0.525603 1.33068 1.15336 0.702924C2.19808 -0.341791 3.86489 -0.20142 4.52821 0.98713Z" fill="#EA5448"/>
</svg>
