<svg width="13" height="13" viewBox="0 0 13 13" fill="none" xmlns="http://www.w3.org/2000/svg">
<path d="M6.5 0C2.91037 0 0 2.91037 0 6.5C0 10.0896 2.91037 13 6.5 13C10.0896 13 13 10.0896 13 6.5C13 2.91037 10.0896 0 6.5 0ZM10.7274 4.07834C10.2617 4.47911 9.89361 4.8425 9.21273 4.86789C8.69233 4.88698 8.30984 4.88922 7.92106 4.5433C7.36714 4.04016 7.74658 3.36984 7.76709 2.6128C7.7742 2.32172 7.82275 2.06781 7.88613 1.82812C9.09777 2.18684 10.1101 3.00402 10.7274 4.07834ZM2.00423 8.38683C2.42877 7.97428 3.12305 7.75531 3.61887 7.20545C4.12506 6.63975 4.10841 5.61377 4.86383 5.70741C5.48112 5.79312 5.37164 6.56662 5.86036 6.95155C6.43642 7.41183 7.14573 7.11892 7.6052 7.69823C8.20828 8.46402 8.06772 9.33664 7.6052 10.1952C7.26477 10.8158 6.82602 11.0356 6.23959 11.3616C4.32981 11.2608 2.70969 10.0659 2.00423 8.38683Z" fill="#D2D2D2"/>
</svg>
