<svg width="11" height="12" viewBox="0 0 11 12" fill="none" xmlns="http://www.w3.org/2000/svg">
<path fill-rule="evenodd" clip-rule="evenodd" d="M5.34793 0C2.39435 0 0 2.39435 0 5.34792C0 6.95468 0.836998 8.35197 1.76833 9.41668C2.70641 10.4891 3.80131 11.2945 4.45298 11.7281C4.99793 12.0906 5.69792 12.0906 6.24287 11.7281C6.89454 11.2945 7.98944 10.4891 8.92753 9.41668C9.85884 8.35197 10.6959 6.95468 10.6959 5.34792C10.6959 2.39435 8.30153 0 5.34793 0ZM4.1595 5.34792C4.1595 4.69157 4.69156 4.1595 5.34793 4.1595C6.00429 4.1595 6.53635 4.69157 6.53635 5.34792C6.53635 6.00429 6.00429 6.53635 5.34793 6.53635C4.69156 6.53635 4.1595 6.00429 4.1595 5.34792ZM5.34793 2.97107C4.03522 2.97107 2.97107 4.03522 2.97107 5.34792C2.97107 6.6606 4.03522 7.72478 5.34793 7.72478C6.6606 7.72478 7.72478 6.6606 7.72478 5.34792C7.72478 4.03522 6.6606 2.97107 5.34793 2.97107Z" fill="#D2D2D2"/>
</svg>
