<svg width="12" height="12" viewBox="0 0 12 12" fill="none" xmlns="http://www.w3.org/2000/svg">
<path fill-rule="evenodd" clip-rule="evenodd" d="M8.76923 7.38461C7.95231 7.38461 7.23923 7.81154 6.82892 8.4517L4.35739 7.03939C4.51708 6.72554 4.61539 6.37569 4.61539 6C4.61539 5.76785 4.57062 5.54815 4.50693 5.33676L7.07815 3.86769C7.49954 4.32462 8.09862 4.61538 8.76923 4.61538C10.044 4.61538 11.0769 3.58246 11.0769 2.30769C11.0769 1.03292 10.044 0 8.76923 0C7.49446 0 6.46154 1.03292 6.46154 2.30769C6.46154 2.53985 6.5063 2.75953 6.56999 2.97138L3.99877 4.44C3.57739 3.98354 2.97831 3.69231 2.30769 3.69231C1.03292 3.69231 0 4.72523 0 6C0 7.27477 1.03292 8.30769 2.30769 8.30769C2.83385 8.30769 3.31338 8.12491 3.70153 7.8286L6.48692 9.44309C6.47769 9.52616 6.46154 9.60646 6.46154 9.69231C6.46154 10.9671 7.49446 12 8.76923 12C10.044 12 11.0769 10.9671 11.0769 9.69231C11.0769 8.41754 10.044 7.38461 8.76923 7.38461Z" fill="#323232"/>
</svg>
