<svg width="31" height="31" viewBox="0 0 31 31" fill="none" xmlns="http://www.w3.org/2000/svg">
<path d="M31 0H0V31H31V0Z" fill="white"/>
<path fill-rule="evenodd" clip-rule="evenodd" d="M9.36467 3.08427C11.0422 2.71147 13.0772 2.58333 15.5 2.58333C17.9228 2.58333 19.9578 2.71147 21.6353 3.08427C23.3275 3.46034 24.7339 4.10233 25.8158 5.18421C26.8977 6.26608 27.5396 7.67253 27.9158 9.36467C28.2885 11.0422 28.4167 13.0772 28.4167 15.5C28.4167 17.9228 28.2885 19.9578 27.9158 21.6353C27.5396 23.3275 26.8977 24.7339 25.8158 25.8158C24.7339 26.8977 23.3275 27.5396 21.6353 27.9158C19.9578 28.2885 17.9228 28.4167 15.5 28.4167C13.0772 28.4167 11.0422 28.2885 9.36467 27.9158C7.67253 27.5396 6.26608 26.8977 5.18421 25.8158C4.10233 24.7339 3.46034 23.3275 3.08427 21.6353C2.71147 19.9578 2.58333 17.9228 2.58333 15.5C2.58333 13.0772 2.71147 11.0422 3.08427 9.36467C3.46034 7.67253 4.10233 6.26608 5.18421 5.18421C6.26608 4.10233 7.67253 3.46034 9.36467 3.08427ZM15.5 7.75C12.6465 7.75 10.3333 10.0632 10.3333 12.9167C10.3333 15.7701 12.6465 18.0833 15.5 18.0833C18.3534 18.0833 20.6667 15.7701 20.6667 12.9167C20.6667 10.0632 18.3534 7.75 15.5 7.75ZM23.7376 22.3383C24.1933 23.0814 24.0321 24.0637 23.2977 24.5333C22.6299 24.9603 21.8496 25.2217 21.0747 25.3939C19.6749 25.7049 17.8636 25.8333 15.4997 25.8333C13.136 25.8333 11.3246 25.7049 9.92492 25.3939C9.16458 25.225 8.39848 24.9704 7.73878 24.5572C6.99111 24.0889 6.82676 23.0932 7.29371 22.3447C7.83141 21.4827 8.57248 20.8055 9.56973 20.3236C11.0828 19.5925 13.0661 19.375 15.4995 19.375C17.9246 19.375 19.9057 19.5749 21.4167 20.2852C22.4397 20.7661 23.1947 21.4532 23.7376 22.3383Z" fill="#2B2A29"/>
</svg>
