<svg width="14" height="14" viewBox="0 0 14 14" fill="none" xmlns="http://www.w3.org/2000/svg">
<path fill-rule="evenodd" clip-rule="evenodd" d="M0.381479 4.71104C4.00543e-08 5.45973 0 6.43979 0 8.4C0 10.3602 4.00543e-08 11.3403 0.381479 12.089C0.717031 12.7476 1.25247 13.283 1.91104 13.6185C2.65973 14 3.63982 14 5.6 14H8.4C10.3602 14 11.3403 14 12.089 13.6185C12.7476 13.283 13.283 12.7476 13.6185 12.089C14 11.3403 14 10.3602 14 8.4C14 6.43979 14 5.45973 13.6185 4.71104C13.283 4.05247 12.7476 3.51703 12.089 3.18148C11.3403 2.8 10.3602 2.8 8.4 2.8H5.6C3.63982 2.8 2.65973 2.8 1.91104 3.18148C1.25247 3.51703 0.717031 4.05247 0.381479 4.71104ZM9.14165 7.34965C9.33471 7.13335 9.31595 6.80148 9.09965 6.60842C8.88335 6.41529 8.55148 6.43405 8.35842 6.65035L6.25002 9.01173L5.64165 8.33035C5.44851 8.11405 5.11663 8.09529 4.90035 8.28842C4.68406 8.48148 4.66528 8.81335 4.85839 9.02965L5.85837 10.1497C5.95798 10.2612 6.10043 10.325 6.25002 10.325C6.39954 10.325 6.54199 10.2612 6.6416 10.1497L9.14165 7.34965Z" fill="#B8B8B8"/>
<path d="M12.9744 1.02513C11.9493 -8.01086e-08 10.2993 0 6.99951 0C3.69967 0 2.04976 -8.01086e-08 1.02464 1.02513C0.494396 1.55536 0.23842 2.25277 0.114842 3.25919C0.486311 2.84572 0.932652 2.5013 1.43385 2.24592C1.98089 1.96719 2.56665 1.85416 3.21521 1.80117C3.8418 1.74998 4.6128 1.74999 5.55552 1.75H8.44347C9.38623 1.74999 10.1572 1.74998 10.7838 1.80117C11.4324 1.85416 12.0182 1.96719 12.5651 2.24592C13.0663 2.5013 13.5127 2.84572 13.8842 3.25919C13.7606 2.25277 13.5046 1.55536 12.9744 1.02513Z" fill="#B8B8B8"/>
</svg>
