<svg width="16" height="15" viewBox="0 0 16 15" fill="none" xmlns="http://www.w3.org/2000/svg">
<path d="M10.9364 0H4.65144C1.92144 0 0.293945 1.6275 0.293945 4.3575V10.635C0.293945 13.3725 1.92144 15 4.65144 15H10.9289C13.6589 15 15.2864 13.3725 15.2864 10.6425V4.3575C15.2939 1.6275 13.6664 0 10.9364 0ZM7.79394 10.41C6.18894 10.41 4.88394 9.105 4.88394 7.5C4.88394 5.895 6.18894 4.59 7.79394 4.59C9.39894 4.59 10.7039 5.895 10.7039 7.5C10.7039 9.105 9.39894 10.41 7.79394 10.41ZM12.2339 3.66C12.1964 3.75 12.1439 3.8325 12.0764 3.9075C12.0014 3.975 11.9189 4.0275 11.8289 4.065C11.7389 4.1025 11.6414 4.125 11.5439 4.125C11.3414 4.125 11.1539 4.05 11.0114 3.9075C10.9439 3.8325 10.8914 3.75 10.8539 3.66C10.8164 3.57 10.7939 3.4725 10.7939 3.375C10.7939 3.2775 10.8164 3.18 10.8539 3.09C10.8914 2.9925 10.9439 2.9175 11.0114 2.8425C11.1839 2.67 11.4464 2.5875 11.6864 2.64C11.7389 2.6475 11.7839 2.6625 11.8289 2.685C11.8739 2.7 11.9189 2.7225 11.9639 2.7525C12.0014 2.775 12.0389 2.8125 12.0764 2.8425C12.1439 2.9175 12.1964 2.9925 12.2339 3.09C12.2714 3.18 12.2939 3.2775 12.2939 3.375C12.2939 3.4725 12.2714 3.57 12.2339 3.66Z" fill="#BEBEBE"/>
</svg>
