<svg width="13" height="12" viewBox="0 0 13 12" fill="none" xmlns="http://www.w3.org/2000/svg">
<path d="M5.62341 0.596759C6.00313 -0.0949296 6.99687 -0.0949292 7.37659 0.596759L8.61846 2.85889C8.76209 3.12051 9.01506 3.30431 9.30826 3.36006L11.8434 3.84211C12.6186 3.98951 12.9257 4.9346 12.3852 5.50949L10.6175 7.38961C10.4131 7.60705 10.3165 7.90444 10.3541 8.20052L10.679 10.7606C10.7784 11.5434 9.97443 12.1275 9.26066 11.7911L6.92632 10.6909C6.65634 10.5637 6.34365 10.5637 6.07368 10.6909L3.73934 11.7911C3.02557 12.1275 2.22162 11.5434 2.32098 10.7606L2.64594 8.20052C2.68352 7.90444 2.58689 7.60705 2.38246 7.38961L0.614803 5.50949C0.074309 4.9346 0.381391 3.98951 1.15657 3.84211L3.69174 3.36006C3.98494 3.30431 4.23791 3.12051 4.38154 2.85889L5.62341 0.596759Z" fill="url(#paint0_linear_10_444)"/>
<defs>
<linearGradient id="paint0_linear_10_444" x1="11.5" y1="1.91667" x2="6.5" y2="8.16667" gradientUnits="userSpaceOnUse">
<stop stop-color="#FFF200"/>
<stop offset="1" stop-color="#FFCB00"/>
</linearGradient>
</defs>
</svg>
