<svg width="39" height="31" viewBox="0 0 39 31" fill="none" xmlns="http://www.w3.org/2000/svg">
<path d="M18.9863 17.6371C18.9863 17.7521 19.032 17.8623 19.1133 17.9436C19.1946 18.0249 19.3048 18.0706 19.4198 18.0706C19.5347 18.0706 19.645 18.0249 19.7263 17.9436C19.8076 17.8623 19.8532 17.7521 19.8532 17.6371C19.8532 17.5222 19.8076 17.4119 19.7263 17.3306C19.645 17.2493 19.5347 17.2037 19.4198 17.2037C19.3048 17.2037 19.1946 17.2493 19.1133 17.3306C19.032 17.4119 18.9863 17.5222 18.9863 17.6371Z" fill="#E73B37"/>
<path d="M23.7436 19.7135H14.8448L1.90625 9.88276V10.754L14.6064 20.407H23.969L36.9292 10.728V9.86108L23.7436 19.7135Z" fill="#E73B37"/>
<path d="M27.741 4.09613V0H11.0964V4.09613H0V30.32H38.8373V4.09613H27.741ZM13.0036 1.90719H25.8338V4.09179H13.0036V1.90719ZM36.9301 28.4128H1.90719V26.2976H36.9301V28.4128ZM36.9301 25.5997H1.90719V6.00332H36.9301V25.5997Z" fill="#39393A"/>
</svg>
